<mxfile host="app.diagrams.net" modified="2022-03-15T10:03:54.193Z" agent="5.0 (Windows NT 10.0; Win64; x64) AppleWebKit/537.36 (KHTML, like Gecko) Chrome/99.0.4844.51 Safari/537.36" etag="wasrtPe-Jzhva8uLMRsK" version="17.1.0" type="github">
  <diagram name="Page-1" id="bfe91b75-5d2c-26a0-9c1d-138518896778">
    <mxGraphModel dx="3555" dy="1985" grid="1" gridSize="10" guides="1" tooltips="1" connect="1" arrows="1" fold="1" page="1" pageScale="1" pageWidth="1100" pageHeight="850" background="none" math="0" shadow="0">
      <root>
        <mxCell id="0" />
        <mxCell id="1" parent="0" />
        <mxCell id="G2_So9xjahASGPWgFWeK-20" value="&lt;h1&gt;&lt;u&gt;Internal&lt;/u&gt;&lt;/h1&gt;" style="rounded=1;whiteSpace=wrap;html=1;shadow=0;comic=0;strokeColor=#82b366;strokeWidth=2;fillColor=#d5e8d4;fontFamily=Tahoma;fontSize=18;align=center;arcSize=11;verticalAlign=top;fontStyle=1;labelBorderColor=#006600;opacity=20;" vertex="1" parent="1">
          <mxGeometry x="30" y="90" width="1440" height="1590" as="geometry" />
        </mxCell>
        <mxCell id="G2_So9xjahASGPWgFWeK-21" value="&lt;h1&gt;&lt;u&gt;External&lt;/u&gt;&lt;/h1&gt;" style="rounded=1;whiteSpace=wrap;html=1;shadow=0;comic=0;strokeColor=#6c8ebf;strokeWidth=2;fillColor=#dae8fc;fontFamily=Tahoma;fontSize=18;align=center;arcSize=11;verticalAlign=top;fontStyle=1;labelBackgroundColor=#CCE5FF;textOpacity=70;labelBorderColor=#3333FF;opacity=30;" vertex="1" parent="1">
          <mxGeometry x="1630" y="90" width="610" height="1120" as="geometry" />
        </mxCell>
        <mxCell id="G2_So9xjahASGPWgFWeK-24" style="edgeStyle=orthogonalEdgeStyle;rounded=0;orthogonalLoop=1;jettySize=auto;html=1;exitX=1;exitY=0.5;exitDx=0;exitDy=0;entryX=0.5;entryY=1;entryDx=0;entryDy=0;entryPerimeter=0;fontFamily=Tahoma;fontSize=18;" edge="1" parent="1" source="7c3789c024ecab99-82" target="7c3789c024ecab99-10">
          <mxGeometry relative="1" as="geometry" />
        </mxCell>
        <mxCell id="7c3789c024ecab99-82" value="事業部 3" style="rounded=1;whiteSpace=wrap;html=1;shadow=0;comic=0;strokeColor=#036897;strokeWidth=2;fillColor=none;fontFamily=Tahoma;fontSize=18;fontColor=#6881B3;align=center;arcSize=11;verticalAlign=top;fontStyle=1" parent="1" vertex="1">
          <mxGeometry x="78" y="1188" width="882" height="420" as="geometry" />
        </mxCell>
        <mxCell id="G2_So9xjahASGPWgFWeK-25" style="edgeStyle=orthogonalEdgeStyle;rounded=0;orthogonalLoop=1;jettySize=auto;html=1;exitX=1;exitY=0.5;exitDx=0;exitDy=0;entryX=0;entryY=0.5;entryDx=0;entryDy=0;entryPerimeter=0;fontFamily=Tahoma;fontSize=18;" edge="1" parent="1" source="7c3789c024ecab99-79" target="7c3789c024ecab99-10">
          <mxGeometry relative="1" as="geometry" />
        </mxCell>
        <mxCell id="7c3789c024ecab99-79" value="事業部&amp;nbsp;&amp;nbsp;2" style="rounded=1;whiteSpace=wrap;html=1;shadow=0;comic=0;strokeColor=#036897;strokeWidth=2;fillColor=none;fontFamily=Tahoma;fontSize=18;fontColor=#6881B3;align=center;arcSize=11;verticalAlign=top;fontStyle=1" parent="1" vertex="1">
          <mxGeometry x="78" y="680" width="882" height="420" as="geometry" />
        </mxCell>
        <mxCell id="G2_So9xjahASGPWgFWeK-28" style="edgeStyle=orthogonalEdgeStyle;rounded=0;orthogonalLoop=1;jettySize=auto;html=1;exitX=1;exitY=0.5;exitDx=0;exitDy=0;entryX=0.5;entryY=0;entryDx=0;entryDy=0;entryPerimeter=0;fontFamily=Tahoma;fontSize=18;" edge="1" parent="1" source="7c3789c024ecab99-78" target="7c3789c024ecab99-10">
          <mxGeometry relative="1" as="geometry" />
        </mxCell>
        <mxCell id="7c3789c024ecab99-78" value="事業部 1" style="rounded=1;whiteSpace=wrap;html=1;shadow=0;comic=0;strokeColor=#036897;strokeWidth=2;fillColor=none;fontFamily=Tahoma;fontSize=18;fontColor=#6881B3;align=center;arcSize=11;verticalAlign=top;fontStyle=1" parent="1" vertex="1">
          <mxGeometry x="75" y="204" width="885" height="420" as="geometry" />
        </mxCell>
        <mxCell id="7c3789c024ecab99-55" style="edgeStyle=none;html=1;labelBackgroundColor=none;endArrow=none;endFill=0;strokeWidth=2;fontFamily=Tahoma;fontSize=18;fontColor=#6881B3;fontStyle=1" parent="1" source="7c3789c024ecab99-8" target="7c3789c024ecab99-54" edge="1">
          <mxGeometry relative="1" as="geometry">
            <mxPoint x="1950" y="837.0000000000002" as="targetPoint" />
          </mxGeometry>
        </mxCell>
        <mxCell id="7c3789c024ecab99-8" value="" style="fontColor=#0066CC;verticalAlign=top;verticalLabelPosition=bottom;labelPosition=center;align=center;html=1;fillColor=#CCCCCC;strokeColor=#6881B3;gradientColor=none;gradientDirection=north;strokeWidth=2;shape=mxgraph.networks.firewall;rounded=0;shadow=0;comic=0;fontSize=18;fontStyle=1;fontFamily=Tahoma;" parent="1" vertex="1">
          <mxGeometry x="1840" y="850" width="100" height="100" as="geometry" />
        </mxCell>
        <object label="&lt;h2 style=&quot;font-size: 18px;&quot;&gt;Email Server&lt;/h2&gt;" id="7c3789c024ecab99-10">
          <mxCell style="fontColor=#0066CC;verticalAlign=top;verticalLabelPosition=bottom;labelPosition=center;align=center;html=1;fillColor=#CCCCCC;strokeColor=#6881B3;gradientColor=none;gradientDirection=north;strokeWidth=2;shape=mxgraph.networks.router;rounded=0;shadow=0;comic=0;fontFamily=Tahoma;fontSize=18;fontStyle=1" parent="1" vertex="1">
            <mxGeometry x="1176" y="860" width="100" height="52" as="geometry" />
          </mxCell>
        </object>
        <mxCell id="7c3789c024ecab99-1" value="" style="fontColor=#0066CC;verticalAlign=top;verticalLabelPosition=bottom;labelPosition=center;align=center;html=1;fillColor=#CCCCCC;strokeColor=#6881B3;gradientColor=none;gradientDirection=north;strokeWidth=2;shape=mxgraph.networks.pc;rounded=0;shadow=0;comic=0;fontSize=18;fontStyle=1;fontFamily=Tahoma;" parent="1" vertex="1">
          <mxGeometry x="130.00000000000028" y="494" width="100" height="70" as="geometry" />
        </mxCell>
        <mxCell id="7c3789c024ecab99-2" value="" style="fontColor=#0066CC;verticalAlign=top;verticalLabelPosition=bottom;labelPosition=center;align=center;html=1;fillColor=#CCCCCC;strokeColor=#6881B3;gradientColor=none;gradientDirection=north;strokeWidth=2;shape=mxgraph.networks.pc;rounded=0;shadow=0;comic=0;fontSize=18;fontStyle=1;fontFamily=Tahoma;" parent="1" vertex="1">
          <mxGeometry x="270.0000000000003" y="494" width="100" height="70" as="geometry" />
        </mxCell>
        <mxCell id="7c3789c024ecab99-3" value="" style="fontColor=#0066CC;verticalAlign=top;verticalLabelPosition=bottom;labelPosition=center;align=center;html=1;fillColor=#CCCCCC;strokeColor=#6881B3;gradientColor=none;gradientDirection=north;strokeWidth=2;shape=mxgraph.networks.pc;rounded=0;shadow=0;comic=0;fontSize=18;fontStyle=1;fontFamily=Tahoma;" parent="1" vertex="1">
          <mxGeometry x="390.0000000000003" y="494" width="100" height="70" as="geometry" />
        </mxCell>
        <mxCell id="7c3789c024ecab99-4" value="" style="fontColor=#0066CC;verticalAlign=top;verticalLabelPosition=bottom;labelPosition=center;align=center;html=1;fillColor=#CCCCCC;strokeColor=#6881B3;gradientColor=none;gradientDirection=north;strokeWidth=2;shape=mxgraph.networks.pc;rounded=0;shadow=0;comic=0;fontSize=18;fontStyle=1;fontFamily=Tahoma;" parent="1" vertex="1">
          <mxGeometry x="510.0000000000003" y="494" width="100" height="70" as="geometry" />
        </mxCell>
        <mxCell id="7c3789c024ecab99-5" value="" style="fontColor=#0066CC;verticalAlign=top;verticalLabelPosition=bottom;labelPosition=center;align=center;html=1;fillColor=#CCCCCC;strokeColor=#6881B3;gradientColor=none;gradientDirection=north;strokeWidth=2;shape=mxgraph.networks.pc;rounded=0;shadow=0;comic=0;fontSize=18;fontStyle=1;fontFamily=Tahoma;" parent="1" vertex="1">
          <mxGeometry x="640.0000000000002" y="494" width="100" height="70" as="geometry" />
        </mxCell>
        <mxCell id="7c3789c024ecab99-9" value="" style="fontColor=#0066CC;verticalAlign=top;verticalLabelPosition=bottom;labelPosition=center;align=center;html=1;fillColor=#CCCCCC;strokeColor=#6881B3;gradientColor=none;gradientDirection=north;strokeWidth=2;shape=mxgraph.networks.wireless_hub;rounded=0;shadow=0;comic=0;fontSize=18;fontStyle=1;fontFamily=Tahoma;" parent="1" vertex="1">
          <mxGeometry x="670.0000000000002" y="304" width="100" height="85" as="geometry" />
        </mxCell>
        <mxCell id="7c3789c024ecab99-13" style="edgeStyle=none;html=1;labelBackgroundColor=none;endArrow=none;endFill=0;strokeWidth=2;fontFamily=Tahoma;fontSize=18;fontColor=#036897;fontStyle=1" parent="1" source="7c3789c024ecab99-1" target="7c3789c024ecab99-9" edge="1">
          <mxGeometry relative="1" as="geometry">
            <mxPoint x="650.0000000000002" y="424" as="targetPoint" />
          </mxGeometry>
        </mxCell>
        <mxCell id="7c3789c024ecab99-14" style="edgeStyle=none;html=1;labelBackgroundColor=none;endArrow=none;endFill=0;strokeWidth=2;fontFamily=Tahoma;fontSize=18;fontColor=#036897;fontStyle=1" parent="1" source="7c3789c024ecab99-3" target="7c3789c024ecab99-9" edge="1">
          <mxGeometry relative="1" as="geometry" />
        </mxCell>
        <mxCell id="7c3789c024ecab99-15" style="edgeStyle=none;html=1;labelBackgroundColor=none;endArrow=none;endFill=0;strokeWidth=2;fontFamily=Tahoma;fontSize=18;fontColor=#036897;fontStyle=1" parent="1" source="7c3789c024ecab99-4" target="7c3789c024ecab99-9" edge="1">
          <mxGeometry relative="1" as="geometry" />
        </mxCell>
        <mxCell id="7c3789c024ecab99-16" style="edgeStyle=none;html=1;labelBackgroundColor=none;endArrow=none;endFill=0;strokeWidth=2;fontFamily=Tahoma;fontSize=18;fontColor=#036897;fontStyle=1" parent="1" source="7c3789c024ecab99-5" target="7c3789c024ecab99-9" edge="1">
          <mxGeometry relative="1" as="geometry" />
        </mxCell>
        <mxCell id="7c3789c024ecab99-11" value="" style="html=1;fillColor=#CCCCCC;strokeColor=#6881B3;gradientColor=none;gradientDirection=north;strokeWidth=2;shape=mxgraph.networks.comm_link_edge;html=1;labelBackgroundColor=none;endArrow=none;endFill=0;fontFamily=Tahoma;fontSize=18;fontStyle=1" parent="1" source="7c3789c024ecab99-9" target="7c3789c024ecab99-12" edge="1">
          <mxGeometry width="100" height="100" relative="1" as="geometry">
            <mxPoint x="900.0000000000002" y="404" as="sourcePoint" />
            <mxPoint x="603.0000000000002" y="317" as="targetPoint" />
          </mxGeometry>
        </mxCell>
        <mxCell id="7c3789c024ecab99-12" value="" style="fontColor=#0066CC;verticalAlign=top;verticalLabelPosition=bottom;labelPosition=center;align=center;html=1;fillColor=#CCCCCC;strokeColor=#6881B3;gradientColor=none;gradientDirection=north;strokeWidth=2;shape=mxgraph.networks.mobile;rounded=0;shadow=0;comic=0;fontSize=18;fontStyle=1;fontFamily=Tahoma;" parent="1" vertex="1">
          <mxGeometry x="320.0000000000003" y="281" width="50" height="100" as="geometry" />
        </mxCell>
        <mxCell id="7c3789c024ecab99-20" value="" style="fontColor=#0066CC;verticalAlign=top;verticalLabelPosition=bottom;labelPosition=center;align=center;html=1;fillColor=#CCCCCC;strokeColor=#6881B3;gradientColor=none;gradientDirection=north;strokeWidth=2;shape=mxgraph.networks.pc;rounded=0;shadow=0;comic=0;fontSize=18;fontStyle=1;fontFamily=Tahoma;" parent="1" vertex="1">
          <mxGeometry x="130.00000000000028" y="983" width="100" height="70" as="geometry" />
        </mxCell>
        <mxCell id="7c3789c024ecab99-21" value="" style="fontColor=#0066CC;verticalAlign=top;verticalLabelPosition=bottom;labelPosition=center;align=center;html=1;fillColor=#CCCCCC;strokeColor=#6881B3;gradientColor=none;gradientDirection=north;strokeWidth=2;shape=mxgraph.networks.pc;rounded=0;shadow=0;comic=0;fontSize=18;fontStyle=1;fontFamily=Tahoma;" parent="1" vertex="1">
          <mxGeometry x="270.0000000000003" y="983" width="100" height="70" as="geometry" />
        </mxCell>
        <mxCell id="7c3789c024ecab99-23" value="" style="fontColor=#0066CC;verticalAlign=top;verticalLabelPosition=bottom;labelPosition=center;align=center;html=1;fillColor=#CCCCCC;strokeColor=#6881B3;gradientColor=none;gradientDirection=north;strokeWidth=2;shape=mxgraph.networks.pc;rounded=0;shadow=0;comic=0;fontSize=18;fontStyle=1;fontFamily=Tahoma;" parent="1" vertex="1">
          <mxGeometry x="390.0000000000003" y="983" width="100" height="70" as="geometry" />
        </mxCell>
        <mxCell id="7c3789c024ecab99-25" value="" style="fontColor=#0066CC;verticalAlign=top;verticalLabelPosition=bottom;labelPosition=center;align=center;html=1;fillColor=#CCCCCC;strokeColor=#6881B3;gradientColor=none;gradientDirection=north;strokeWidth=2;shape=mxgraph.networks.pc;rounded=0;shadow=0;comic=0;fontSize=18;fontStyle=1;fontFamily=Tahoma;" parent="1" vertex="1">
          <mxGeometry x="510.0000000000003" y="983" width="100" height="70" as="geometry" />
        </mxCell>
        <mxCell id="7c3789c024ecab99-27" value="" style="fontColor=#0066CC;verticalAlign=top;verticalLabelPosition=bottom;labelPosition=center;align=center;html=1;fillColor=#CCCCCC;strokeColor=#6881B3;gradientColor=none;gradientDirection=north;strokeWidth=2;shape=mxgraph.networks.pc;rounded=0;shadow=0;comic=0;fontSize=18;fontStyle=1;fontFamily=Tahoma;" parent="1" vertex="1">
          <mxGeometry x="640.0000000000002" y="983" width="100" height="70" as="geometry" />
        </mxCell>
        <mxCell id="7c3789c024ecab99-30" value="" style="fontColor=#0066CC;verticalAlign=top;verticalLabelPosition=bottom;labelPosition=center;align=center;html=1;fillColor=#CCCCCC;strokeColor=#6881B3;gradientColor=none;gradientDirection=north;strokeWidth=2;shape=mxgraph.networks.wireless_hub;rounded=0;shadow=0;comic=0;fontSize=18;fontStyle=1;fontFamily=Tahoma;" parent="1" vertex="1">
          <mxGeometry x="670.0000000000002" y="793" width="100" height="85" as="geometry" />
        </mxCell>
        <mxCell id="7c3789c024ecab99-19" style="edgeStyle=none;html=1;labelBackgroundColor=none;endArrow=none;endFill=0;strokeWidth=2;fontFamily=Tahoma;fontSize=18;fontColor=#036897;fontStyle=1" parent="1" source="7c3789c024ecab99-20" target="7c3789c024ecab99-30" edge="1">
          <mxGeometry relative="1" as="geometry">
            <mxPoint x="650.0000000000002" y="913" as="targetPoint" />
          </mxGeometry>
        </mxCell>
        <mxCell id="7c3789c024ecab99-22" style="edgeStyle=none;html=1;labelBackgroundColor=none;endArrow=none;endFill=0;strokeWidth=2;fontFamily=Tahoma;fontSize=18;fontColor=#036897;fontStyle=1" parent="1" source="7c3789c024ecab99-23" target="7c3789c024ecab99-30" edge="1">
          <mxGeometry relative="1" as="geometry" />
        </mxCell>
        <mxCell id="7c3789c024ecab99-24" style="edgeStyle=none;html=1;labelBackgroundColor=none;endArrow=none;endFill=0;strokeWidth=2;fontFamily=Tahoma;fontSize=18;fontColor=#036897;fontStyle=1" parent="1" source="7c3789c024ecab99-25" target="7c3789c024ecab99-30" edge="1">
          <mxGeometry relative="1" as="geometry" />
        </mxCell>
        <mxCell id="7c3789c024ecab99-26" style="edgeStyle=none;html=1;labelBackgroundColor=none;endArrow=none;endFill=0;strokeWidth=2;fontFamily=Tahoma;fontSize=18;fontColor=#036897;fontStyle=1" parent="1" source="7c3789c024ecab99-27" target="7c3789c024ecab99-30" edge="1">
          <mxGeometry relative="1" as="geometry" />
        </mxCell>
        <mxCell id="7c3789c024ecab99-53" value="Internet" style="html=1;fillColor=#CCCCCC;strokeColor=#6881B3;gradientColor=none;gradientDirection=north;strokeWidth=2;shape=mxgraph.networks.cloud;fontColor=#6881B3;rounded=0;shadow=0;comic=0;align=center;fontSize=18;fontStyle=1;fontFamily=Tahoma;" parent="1" vertex="1">
          <mxGeometry x="1780" y="300" width="330" height="140" as="geometry" />
        </mxCell>
        <mxCell id="7c3789c024ecab99-56" style="edgeStyle=none;html=1;labelBackgroundColor=none;endArrow=none;endFill=0;strokeWidth=2;fontFamily=Tahoma;fontSize=18;fontColor=#6881B3;exitX=1;exitY=0.5;exitDx=0;exitDy=0;exitPerimeter=0;fontStyle=1" parent="1" source="7c3789c024ecab99-8" target="7c3789c024ecab99-53" edge="1">
          <mxGeometry relative="1" as="geometry" />
        </mxCell>
        <mxCell id="7c3789c024ecab99-61" value="" style="fontColor=#0066CC;verticalAlign=top;verticalLabelPosition=bottom;labelPosition=center;align=center;html=1;fillColor=#CCCCCC;strokeColor=#6881B3;gradientColor=none;gradientDirection=north;strokeWidth=2;shape=mxgraph.networks.pc;rounded=0;shadow=0;comic=0;fontSize=18;fontStyle=1;fontFamily=Tahoma;" parent="1" vertex="1">
          <mxGeometry x="130.00000000000026" y="1503.4117647058824" width="100" height="70" as="geometry" />
        </mxCell>
        <mxCell id="7c3789c024ecab99-62" value="" style="fontColor=#0066CC;verticalAlign=top;verticalLabelPosition=bottom;labelPosition=center;align=center;html=1;fillColor=#CCCCCC;strokeColor=#6881B3;gradientColor=none;gradientDirection=north;strokeWidth=2;shape=mxgraph.networks.pc;rounded=0;shadow=0;comic=0;fontSize=18;fontStyle=1;fontFamily=Tahoma;" parent="1" vertex="1">
          <mxGeometry x="270.0000000000002" y="1503.4117647058824" width="100" height="70" as="geometry" />
        </mxCell>
        <mxCell id="7c3789c024ecab99-63" value="" style="fontColor=#0066CC;verticalAlign=top;verticalLabelPosition=bottom;labelPosition=center;align=center;html=1;fillColor=#CCCCCC;strokeColor=#6881B3;gradientColor=none;gradientDirection=north;strokeWidth=2;shape=mxgraph.networks.pc;rounded=0;shadow=0;comic=0;fontSize=18;fontStyle=1;fontFamily=Tahoma;" parent="1" vertex="1">
          <mxGeometry x="390.0000000000002" y="1503.4117647058824" width="100" height="70" as="geometry" />
        </mxCell>
        <mxCell id="7c3789c024ecab99-64" value="" style="fontColor=#0066CC;verticalAlign=top;verticalLabelPosition=bottom;labelPosition=center;align=center;html=1;fillColor=#CCCCCC;strokeColor=#6881B3;gradientColor=none;gradientDirection=north;strokeWidth=2;shape=mxgraph.networks.pc;rounded=0;shadow=0;comic=0;fontSize=18;fontStyle=1;fontFamily=Tahoma;" parent="1" vertex="1">
          <mxGeometry x="510.0000000000002" y="1503.4117647058824" width="100" height="70" as="geometry" />
        </mxCell>
        <mxCell id="7c3789c024ecab99-65" value="" style="fontColor=#0066CC;verticalAlign=top;verticalLabelPosition=bottom;labelPosition=center;align=center;html=1;fillColor=#CCCCCC;strokeColor=#6881B3;gradientColor=none;gradientDirection=north;strokeWidth=2;shape=mxgraph.networks.pc;rounded=0;shadow=0;comic=0;fontSize=18;fontStyle=1;fontFamily=Tahoma;" parent="1" vertex="1">
          <mxGeometry x="640.0000000000002" y="1503.4117647058824" width="100" height="70" as="geometry" />
        </mxCell>
        <mxCell id="7c3789c024ecab99-67" value="" style="fontColor=#0066CC;verticalAlign=top;verticalLabelPosition=bottom;labelPosition=center;align=center;html=1;fillColor=#CCCCCC;strokeColor=#6881B3;gradientColor=none;gradientDirection=north;strokeWidth=2;shape=mxgraph.networks.wireless_hub;rounded=0;shadow=0;comic=0;fontSize=18;fontStyle=1;fontFamily=Tahoma;" parent="1" vertex="1">
          <mxGeometry x="670.0000000000002" y="1313.4117647058824" width="100" height="85" as="geometry" />
        </mxCell>
        <mxCell id="7c3789c024ecab99-68" style="edgeStyle=none;html=1;labelBackgroundColor=none;endArrow=none;endFill=0;strokeWidth=2;fontFamily=Tahoma;fontSize=18;fontColor=#036897;fontStyle=1" parent="1" source="7c3789c024ecab99-61" target="7c3789c024ecab99-67" edge="1">
          <mxGeometry relative="1" as="geometry">
            <mxPoint x="650.0000000000002" y="1433.4117647058824" as="targetPoint" />
          </mxGeometry>
        </mxCell>
        <mxCell id="7c3789c024ecab99-69" style="edgeStyle=none;html=1;labelBackgroundColor=none;endArrow=none;endFill=0;strokeWidth=2;fontFamily=Tahoma;fontSize=18;fontColor=#036897;fontStyle=1" parent="1" source="7c3789c024ecab99-63" target="7c3789c024ecab99-67" edge="1">
          <mxGeometry relative="1" as="geometry" />
        </mxCell>
        <mxCell id="7c3789c024ecab99-70" style="edgeStyle=none;html=1;labelBackgroundColor=none;endArrow=none;endFill=0;strokeWidth=2;fontFamily=Tahoma;fontSize=18;fontColor=#036897;fontStyle=1" parent="1" source="7c3789c024ecab99-64" target="7c3789c024ecab99-67" edge="1">
          <mxGeometry relative="1" as="geometry" />
        </mxCell>
        <mxCell id="7c3789c024ecab99-71" style="edgeStyle=none;html=1;labelBackgroundColor=none;endArrow=none;endFill=0;strokeWidth=2;fontFamily=Tahoma;fontSize=18;fontColor=#036897;fontStyle=1" parent="1" source="7c3789c024ecab99-65" target="7c3789c024ecab99-67" edge="1">
          <mxGeometry relative="1" as="geometry" />
        </mxCell>
        <mxCell id="7c3789c024ecab99-73" value="" style="html=1;fillColor=#CCCCCC;strokeColor=#6881B3;gradientColor=none;gradientDirection=north;strokeWidth=2;shape=mxgraph.networks.comm_link_edge;html=1;labelBackgroundColor=none;endArrow=none;endFill=0;fontFamily=Tahoma;fontSize=18;fontStyle=1" parent="1" source="7c3789c024ecab99-67" target="7c3789c024ecab99-74" edge="1">
          <mxGeometry width="100" height="100" relative="1" as="geometry">
            <mxPoint x="900.0000000000002" y="1413.4117647058824" as="sourcePoint" />
            <mxPoint x="603.0000000000002" y="1326.4117647058824" as="targetPoint" />
          </mxGeometry>
        </mxCell>
        <mxCell id="7c3789c024ecab99-74" value="" style="fontColor=#0066CC;verticalAlign=top;verticalLabelPosition=bottom;labelPosition=center;align=center;html=1;fillColor=#CCCCCC;strokeColor=#6881B3;gradientColor=none;gradientDirection=north;strokeWidth=2;shape=mxgraph.networks.mobile;rounded=0;shadow=0;comic=0;fontSize=18;fontStyle=1;fontFamily=Tahoma;" parent="1" vertex="1">
          <mxGeometry x="320.0000000000002" y="1223.4117647058824" width="50" height="100" as="geometry" />
        </mxCell>
        <mxCell id="G2_So9xjahASGPWgFWeK-16" style="edgeStyle=orthogonalEdgeStyle;rounded=0;orthogonalLoop=1;jettySize=auto;html=1;exitX=0.5;exitY=0;exitDx=0;exitDy=0;exitPerimeter=0;entryX=0;entryY=0.5;entryDx=0;entryDy=0;fontSize=18;fontStyle=1;fontFamily=Tahoma;" edge="1" parent="1" source="7c3789c024ecab99-54" target="G2_So9xjahASGPWgFWeK-14">
          <mxGeometry relative="1" as="geometry" />
        </mxCell>
        <mxCell id="G2_So9xjahASGPWgFWeK-18" style="edgeStyle=orthogonalEdgeStyle;rounded=0;orthogonalLoop=1;jettySize=auto;html=1;exitX=0.5;exitY=1;exitDx=0;exitDy=0;exitPerimeter=0;entryX=0;entryY=0.5;entryDx=0;entryDy=0;fontSize=18;fontStyle=1;fontFamily=Tahoma;" edge="1" parent="1" source="7c3789c024ecab99-54" target="G2_So9xjahASGPWgFWeK-13">
          <mxGeometry relative="1" as="geometry" />
        </mxCell>
        <mxCell id="7c3789c024ecab99-54" value="Email SPAM" style="fontColor=#0066CC;verticalAlign=top;verticalLabelPosition=bottom;labelPosition=center;align=center;html=1;fillColor=#CCCCCC;strokeColor=#6881B3;gradientColor=none;gradientDirection=north;strokeWidth=2;shape=mxgraph.networks.router;rounded=0;shadow=0;comic=0;fontSize=18;fontStyle=1;fontFamily=Tahoma;" parent="1" vertex="1">
          <mxGeometry x="1510" y="885" width="100" height="30" as="geometry" />
        </mxCell>
        <mxCell id="G2_So9xjahASGPWgFWeK-6" value="" style="edgeStyle=none;html=1;labelBackgroundColor=none;endArrow=none;endFill=0;strokeWidth=2;fontFamily=Tahoma;fontSize=18;fontColor=#036897;fontStyle=1" edge="1" parent="1" source="7c3789c024ecab99-10" target="7c3789c024ecab99-54">
          <mxGeometry relative="1" as="geometry">
            <mxPoint x="1442" y="896.9999999999995" as="targetPoint" />
            <mxPoint x="1276" y="896.9999999999995" as="sourcePoint" />
          </mxGeometry>
        </mxCell>
        <mxCell id="G2_So9xjahASGPWgFWeK-9" value="Internal&lt;br style=&quot;font-size: 18px;&quot;&gt;&lt;br style=&quot;font-size: 18px;&quot;&gt;ucs.com" style="ellipse;whiteSpace=wrap;html=1;fontSize=18;fontStyle=1;fontFamily=Tahoma;" vertex="1" parent="1">
          <mxGeometry x="1330" y="860" width="120" height="80" as="geometry" />
        </mxCell>
        <mxCell id="G2_So9xjahASGPWgFWeK-19" style="edgeStyle=orthogonalEdgeStyle;rounded=0;orthogonalLoop=1;jettySize=auto;html=1;exitX=1;exitY=0.5;exitDx=0;exitDy=0;entryX=0.5;entryY=1;entryDx=0;entryDy=0;entryPerimeter=0;fontSize=18;fontStyle=1;fontFamily=Tahoma;" edge="1" parent="1" source="G2_So9xjahASGPWgFWeK-13" target="7c3789c024ecab99-8">
          <mxGeometry relative="1" as="geometry" />
        </mxCell>
        <mxCell id="G2_So9xjahASGPWgFWeK-13" value="事業部 3&lt;br style=&quot;font-size: 18px;&quot;&gt;bei.net.tw" style="ellipse;whiteSpace=wrap;html=1;fontSize=18;fontStyle=1;fontFamily=Tahoma;" vertex="1" parent="1">
          <mxGeometry x="1660" y="1010" width="120" height="80" as="geometry" />
        </mxCell>
        <mxCell id="G2_So9xjahASGPWgFWeK-17" style="edgeStyle=orthogonalEdgeStyle;rounded=0;orthogonalLoop=1;jettySize=auto;html=1;exitX=1;exitY=0.5;exitDx=0;exitDy=0;entryX=0.5;entryY=0;entryDx=0;entryDy=0;entryPerimeter=0;fontSize=18;fontStyle=1;fontFamily=Tahoma;" edge="1" parent="1" source="G2_So9xjahASGPWgFWeK-14" target="7c3789c024ecab99-8">
          <mxGeometry relative="1" as="geometry" />
        </mxCell>
        <mxCell id="G2_So9xjahASGPWgFWeK-14" value="事業部 1&lt;br style=&quot;font-size: 18px;&quot;&gt;ucs.tw" style="ellipse;whiteSpace=wrap;html=1;fontSize=18;fontStyle=1;fontFamily=Tahoma;" vertex="1" parent="1">
          <mxGeometry x="1660" y="680" width="120" height="80" as="geometry" />
        </mxCell>
        <mxCell id="G2_So9xjahASGPWgFWeK-15" value="事業部 2&lt;br style=&quot;font-size: 18px;&quot;&gt;ucredit.com.tw" style="ellipse;whiteSpace=wrap;html=1;fontSize=18;fontStyle=1;fontFamily=Tahoma;" vertex="1" parent="1">
          <mxGeometry x="1660" y="857" width="120" height="80" as="geometry" />
        </mxCell>
      </root>
    </mxGraphModel>
  </diagram>
</mxfile>
